<svg version="1.1" xmlns:svg="http://www.w3.org/2000/svg" xmlns="http://www.w3.org/2000/svg" xmlns:xlink="http://www.w3.org/1999/xlink" x="0px" y="0px" viewBox="0 0 343 230" xml:space="preserve"><g id="layer1" transform="translate(-429.704, -414.938)"><path id="rect2396" d="M510.7,416c-5.2,0-10.7,4-12.2,8.9l-67.2,210c-1.6,5,1.3,8.9,6.5,8.9h254.1c5.2,0,10.6-4,12.2-8.9l67.2-210c1.6-5-1.3-8.9-6.5-8.9H510.7z M596.2,432.5c7.4,0,14.2,0.4,18.9,1.3c16.8,2.2,28.8,10.8,31.1,19.7c1.3,6.4,0,12.8,0,12.8C634.3,513.6,538,503,535.1,517.4c0,0,90.7,0,90.7,0l-10.7,38.2l51.8-38.2h57.5l-61.8,42.5l31.4,67.5h-57.8l-16.8-41.1l-17.8,12.5l-9.3,28.6h-45l26.8-81.8H478c0,0,13.8-44.6,55-56.6c36.1-10.5,59.6-7.5,65.7-19.5c0,0,0-4.7,0-4.7c0-1.4-3.5-5-17.9-5c-25.2,0-28.2,15.4-28.2,15.4h-48.6c11.9-25.9,32.5-37.2,56.1-41.1C569.7,433.4,583.8,432.5,596.2,432.5z"></path></g>
                            </svg>