<svg version="1.1" viewBox="0 0 1000 360.27" xmlns="http://www.w3.org/2000/svg"><path d="M407.48,185.08c0-11.45,9.3-20.72,20.77-20.72c11.44,0,20.72,9.27,20.72,20.72s-9.28,20.75-20.72,20.75C416.78,205.83,407.48,196.53,407.48,185.08 M428.25,226.81c23,0,41.73-18.67,41.73-41.73c0-23.05-18.73-41.75-41.73-41.75c-23.08,0-41.77,18.7-41.77,41.75C386.48,208.14,405.17,226.81,428.25,226.81 M47.8,189.09l-6.3-20.74l-6.31,20.74h6.31H47.8z M83.46,225.85H60.84l-5.66-15.06H41.96H28.77l-5.66,15.06H0.49l41.47-118.79L83.46,225.85z M361.33,225.55h21.25v-81.07h-21.25V225.55z M286.18,225.55h21.27v-81.06h-21.27V225.55z M340.92,162.08h13.65v-17.59h-22.15c-7.23,0-17.93,4.37-17.93,19.16c0,19.48,24.07,32.22,21.71,40.07c-1.13,3.76-5.68,3.93-8.04,3.93h-14.6v17.9h23.89c10.2,0,20.42-6.27,20.42-18.22c0-22.8-27.92-35.21-22-43.68C336.98,162.08,340.92,162.08,340.92,162.08 M285.84,137.55h101.22l-11.62-21.29h-105.3l-24.49,64.04l-24.53-64.04H112.37l-11.31,21.29h48.72l-0.05,88.09h21.97l0.07-88.09h33.64l40.24,106.84C245.64,244.4,285.84,137.55,285.84,137.55z M118.65,143.42c-23.01,0-41.67,18.66-41.67,41.68c0,23.01,18.66,41.64,41.67,41.64c10.48,0,20.04-3.82,27.37-10.21l-13.77-15.63c-3.66,3.13-8.4,5.03-13.6,5.03c-11.5,0-20.84-9.33-20.84-20.84s9.34-20.82,20.84-20.82c5.11,0,9.8,1.81,13.4,4.86l13.76-15.62C138.52,147.23,129.04,143.42,118.65,143.42 M533.23,144.78h-21.21v30.66l-38.5-33.15v83.19l21.37,0.08v-34.26l38.34,37.55V144.78zM183.87,144.52h21.26v81.06h-21.26V144.52z"></path><path d="M786.59,262.32c-0.27-0.53-0.48-0.98-0.62-1.3c-0.07-0.17-0.15-0.31-0.19-0.39c0-0.01-0.02-0.04-0.02-0.05v-17.94l-0.53-0.03c0,0-12.95-0.42-25.49-0.42c-5.91,0-11.68,0.08-16.03,0.37c-2.2,0.13-3.98,0.33-5.27,0.57c-0.65,0.13-1.17,0.28-1.57,0.45c-0.32,0.16-0.7,0.35-0.79,0.8c-2.27,1.4-4.57,1.87-6.84,1.87c-4.77,0-9.06-2.13-11.49-2.16c-0.2,0.01-0.43,0.03-0.63,0.08h-0.09l-0.07,0.07c-2.15,1.4-2.74,1.57-3.91,3.38c-1.63,0.25-2.98,0.33-4.21,0.33c-2.38,0-4.3-0.33-6.89-0.36c-0.05-1.98-0.41-2.93-0.87-3.5c-0.25-0.3-0.5-0.47-0.58-0.55c-0.1-0.12-0.07-0.02-0.09-0.12c0-0.07,0.02-0.24,0.11-0.46c0.35-1.08,0.31-1.35,1.2-2l0.23-0.17v-9.57c0.42-0.34,0.72-0.6,1.18-0.91l0.22-0.18v-6.53c0.57-0.51,0.85-0.67,1.13-1.08c0.31-0.46,0.27-0.93,0.28-1.81c0-0.17,0.02-0.32,0.02-0.45c-0.02-0.34-0.02-0.57-0.05-0.79c-0.05-0.36-0.28-0.63-0.48-0.81c-0.19-0.21-0.44-0.49-0.84-1.08c0.33-1,0.5-1.88,0.75-2.45c0.32-0.62,0.59-0.93,1.56-1.11l0.43-0.09l0.01-0.43c0-0.01,0.14-2.94,0.14-5.33c-0.02-1.19-0.03-2.22-0.15-2.8l-0.04-0.2l-0.19-0.13c-0.39-0.27-0.72-0.59-1.17-0.95v-10.15c0.4-0.38,0.72-0.61,1.17-0.93l0.22-0.17l0.01-0.27c0,0,0.76-12.02,0.76-21.08c-0.01-4.54-0.15-8.21-0.81-9.62c-0.37-0.74-0.81-1.17-1.28-1.53c-0.4-0.32-0.85-0.59-1.49-1.14v-29.94c0.42-0.35,0.72-0.61,1.19-0.92l0.22-0.18v-6.65l-0.22-0.16c-2.43-1.76-2.61-2.73-2.61-2.85l0.02-0.04v-0.08c0.04-1.05,0.18-1.09,1.18-1.85l0.22-0.17v-14.24l-0.22-0.18c-0.89-0.63-2.49-2.34-3.82-3.88c-1.3-1.51-2.41-2.86-2.41-2.86l-0.07-0.07l-0.07-0.08c-0.24-0.11-0.46-0.15-0.69-0.15c-0.62,0.03-1.04,0.25-1.53,0.24c-0.62-0.01-1.62-0.33-3.23-2.94l-0.17-0.24h-11.29c-0.31-0.42-0.55-0.74-0.84-1.24l-0.18-0.28h-2.51l-0.09,0.44c-0.16,0.94-0.28,1.24-0.42,1.43c-0.12,0.18-0.41,0.41-0.85,0.99l-0.37,0.46l0.46,0.33c3.75,2.72,5.18,4.41,5.8,5.46c0.32,0.52,0.41,0.89,0.55,1.21c0.09,0.33,0.3,0.73,0.72,0.97l0.13,0.06h0.19c0.16,0,0.46-0.02,0.87-0.02c0.54,0,1.24,0.05,1.81,0.2c0.57,0.14,0.92,0.4,0.99,0.63l0.02,0.03l0.01,0.04c0,0,0.52,0.94,1.07,2.41c0.57,1.46,1.16,3.42,1.33,5.36c0,0.04,0.01,0.07,0.01,0.11c0.06,1.36-1.74,6.02-2.36,6.75l-0.35,0.46l0.46,0.33c0.51,0.33,0.81,0.6,1.24,0.98c0.19,0.79,0.25,2.17,0.25,3.64c0,2.67-0.22,5.66-0.3,6.47c-1.04,0.96-1.5,1.69-2.6,2.47l-0.21,0.16v11.6l0.21,0.15c0.48,0.34,0.78,0.59,1.17,0.95v21.34l0.24,0.18c0.41,0.25,1.47,1.6,1.54,2.78c0,0.07,0.02,0.15,0.02,0.22c0.07,1.37-1.23,3.16-1.57,3.33l-0.23,0.15v15.26c-0.39,0.35-0.7,0.63-1.17,0.96l-0.2,0.1l-0.02,0.24c0,0.03-0.36,2.12-0.36,5.23c0,1.48,0.07,3.2,0.33,5.01c-0.2,0.35-0.3,0.57-0.37,0.65c-0.07,0.1-0.2,0.2-0.72,0.43l-0.33,0.14l0.03,19.34l0.21,0.16c1.24,0.9,2.59,1.92,2.59,3.75c0,0.55,0.07,0.89,0.07,1.09c-0.04,0.21,0.01,0.13-0.12,0.28c-0.12,0.16-0.5,0.41-1.11,0.85l-0.21,0.18v4.96c-0.43,0.34-0.72,0.64-1.18,0.94l-0.24,0.17v11.61l0.21,0.16c0.8,0.55,1.21,0.87,1.21,1.46c0,0.73-0.82,1.23-1.18,1.45l-0.24,0.17v6.51c-3.53,3.21-3.36,2.57-4.94,4.1l-4.15,2.26l-0.07,0.24c-0.15,0.95-0.3,1.24-0.4,1.43c-0.13,0.18-0.42,0.43-0.87,0.98l-0.37,0.46l0.47,0.33c0.64,0.47,0.91,0.8,1.25,1.37l0.28,0.47l0.48-0.29c0.7-0.46,2.42-0.69,4.31-0.69c1.9,0,3.98,0.2,5.59,0.37c1.59,0.2,2.72,0.41,2.72,0.41l0.46,0.06l0.15-0.42c0.32-0.96,2.57-2.95,4.74-4.49c1.83-1.34,3.57-2.45,4.07-2.75h5.13h0.01c0.55,0.03,3.59,1.04,4.08,2.01l0.17,0.28h0.3c0,0,2.3-0.02,5.75-0.02c9.26,0,26.95,0.04,29.73,0.27c0.4,0.63,0.97,1.89,3.2,2.02h0.01h13.48c0.93,1.16,1.74,1.52,2.43,1.51c0.38,0,0.67-0.06,0.85-0.06c0.29,0.01,0.59,0.01,1.45,1.32l0.14,0.28h4.62c0.31,0.42,0.58,0.75,0.86,1.24l0.15,0.26h19.69l-0.56-0.83C787.8,264.66,787.11,263.35,786.59,262.32 M708.71,98.93c0.2,0.26,0.57,0.46,0.95,0.5c0.33,0.07,0.74,0.07,1.36,0.09c0.13,0.56,0.55,0.99,1,1.24c1.78,0.95,4.44,0.91,4.96,2.84l1.81,30.66l0.22,0.17c0.36,0.25,0.71,0.34,0.9,0.47c0.21,0.14,0.24,0.15,0.26,0.31c0.01,0.06,0.03,0.1,0.03,0.15c-0.18,0.1-0.59,0.35-1.22,0.85l-0.22,0.18l0.46,60.08c-1.24,1.37-1.84,4.1-1.85,5.99c0,1.33,0.4,2.25,0.75,2.91c0.37,0.72,0.66,1.11,0.64,1.65c0,0.65,0.07,1.07,0.07,1.31c-0.02,0.22,0,0.22-0.16,0.4c-0.1,0.17-0.48,0.46-1.09,0.9l-0.21,0.16v0.28v1.01c0,3.45-0.12,14.92-1.21,18.25c-2.29,1.55-2.88,1.9-3.45,2.59c-0.54,0.67-0.89,1.43-3,4.09l-0.34,0.44l0.46,0.33c0.46,0.33,0.8,0.69,1.07,0.98c0.29,0.25,0.37,0.53,0.87,0.63c0.08,0.07,0.29,0.27,0.59,0.27h0.01c0.76-0.11,1.31-0.58,3.31-2.53c1.42-0.58,6.69-1.09,10.87-1.08c1.37,0,2.62,0.06,3.61,0.15c0.98,0.11,1.72,0.32,1.91,0.45l0.27,0.18l0.28-0.15c1.16-0.58,1.83-0.7,2.13-0.7c0.08,0,0.13,0.01,0.18,0.01l0.1,0.15h0.27c0.37,0,0.7-0.02,0.98-0.02c0.59,0,1.06,0.04,2.06,0.46l0.86,0.33l-0.68-5.16l-0.2-0.15c-4.32-3.08-6.53-4.07-7.7-4.84c-1.09-0.75-1.24-1.09-1.88-3.61c-0.3-1.26-0.7-2.32-0.7-3.22c0.02-0.59,0.17-1.09,0.61-1.63c0.35-0.47,0.7-0.63,1.27-1.04l0.22-0.15l0.77-10.69l-0.22-0.16c-0.15-0.18-0.72-1.46-1.13-2.65c-0.41-1.16-0.78-2.5-0.81-2.75v-0.04v-0.42c-0.02-4.11-1.38-6.44-1.37-8.11c0.01-0.82,0.27-1.54,1.22-2.51c0.48-0.46,0.76-0.7,1.32-1.08l0.2-0.14l0.04-0.23c0-0.01,0.19-1.4,0.19-3.15c0-0.87-0.06-1.81-0.19-2.71l-0.05-0.27l-0.21-0.12c-0.12-0.1-0.26-0.96-0.25-1.8c-0.03-0.9,0.04-1.82-0.1-2.41c-0.35-1.71-0.44-2.86-0.44-3.64c0-0.92,0.11-1.22,0.12-1.63c-0.01-0.79-0.26-2.04-0.26-3.37c0-1.29,0.25-2.57,1.05-3.45c0.45-0.46,0.74-0.66,1.31-1.05l0.28-0.2l-0.78-4.46l-0.19-0.11c-0.15-0.13-0.35-1.18-0.48-2.13c-0.08-0.5-0.17-0.98-0.29-1.38c-0.07-0.26-0.15-0.55-0.37-0.78c0.45-3.09,0.59-7.65,0.59-12.65c0-10.34-0.64-22.52-0.64-27.05c0.04-0.71,0.28-0.84,0.85-1.29c0.53-0.4,1.27-1.14,1.27-2.51c-0.02-0.9-0.08-1.43-0.27-1.85c-0.37-0.64-0.89-0.69-0.85-0.74c-0.09-0.06-0.31-0.46-0.31-1.96c-0.08-2.65,3.65-5.81,7.08-6.71l0.41-0.12v-2.89l-0.13-0.15c-0.72-0.91-1.18-1.34-1.72-2.21l-0.22-0.41l-0.45,0.17c-1.07,0.42-6.64,0.69-12.28,0.68c-6.13,0.01-12.63-0.28-14.06-0.69l-0.4-0.13l-0.2,0.38c-0.17,0.29-0.85,1.16-1.37,1.84l-0.34,0.46l0.45,0.32C708.25,98.12,708.29,98.49,708.71,98.93 M984.25,161.57c-1.19,1.01-1.81,3.37-2.43,5.67c-0.46,1.96-0.79,3.84-0.9,4.5c-0.74,0.46-2.75,2.16-2.75,6.03c0,0.21,0.02,0.46,0.03,0.7c-0.26,0.88-0.4,2.89-0.55,5.68c-0.42,8.69-0.42,24.14-0.42,25.34v0.03c-0.55,3.18-2.26,5-3.83,10.35l-0.03,0.08l0.01,0.08c0,0.25,0.02,0.47,0.02,0.72c0,6.52-4.69,13.05-6.75,15.58l0.19-67.21l-0.29-0.17c-0.07-0.01-0.46-0.47-0.74-1.18c-0.92-2.1-1.76-6.16-1.76-7.47v-0.1l-0.06-0.09c0,0-0.29-0.69-0.6-1.37c-0.16-0.33-0.29-0.68-0.46-0.96c-0.01-0.03-0.01-0.03-0.05-0.06c0.04-0.33,0.04-0.71,0.04-1.22c0-5.73-0.59-21.04-0.59-21.04l-0.02-0.05l-0.38-1.78l0.55-5.27c0.85-0.05,1.52-0.07,2.16-0.07c2.02,0,3.4,0.2,6.1,0.2c0.68-0.02,1.11,0.52,1.89,1.37c0.65,0.7,1.63,1.51,3.19,1.65c0.13,1.76,1.04,2.95,2.06,3.88c1.14,1.04,2.41,1.87,3.3,3.13c0.06,0.05,0.25,0.7,0.45,1.5c0.28,1.23,0.6,2.92,1.02,4.43c0.43,1.34,0.82,2.52,1.59,3.18V161.57L984.25,161.57z M998.98,140.07l-0.03-0.24l-0.17-0.13c-0.04-0.02-0.07-0.09-0.1-0.18c-0.21-0.51-0.49-1.58-0.78-2.53c-0.16-0.51-0.28-0.96-0.44-1.33c-0.1-0.28-0.15-0.52-0.3-0.71l0.41-14.52l-0.23-0.18c-0.86-0.62-0.97-0.92-1.56-2.59c-0.56-1.63-1.51-4.35-3.9-9.36c-0.44-0.88-1.65-1.71-3.05-2.94c-1.41-1.18-2.98-2.66-4.02-4.34l-0.16-0.27h-6.54c-0.34-0.42-0.58-0.73-0.85-1.24l-0.15-0.28h-6.04c-0.33-0.42-0.59-0.73-0.86-1.24l-0.15-0.27h-4.63c-0.65-0.78-1.05-1.2-1.54-2.02l-0.17-0.28h-4.64c-1.58-1.76-3.99-2.71-6.06-3.5c-1.08-0.41-2.05-0.76-2.75-1.13c-0.72-0.38-1.06-0.75-1.09-1l-0.09-0.43h-4.75c-0.33-0.43-0.57-0.77-0.85-1.26l-0.17-0.27h-8.12l0.72,0.86c0.16,0.23,0.97,0.99,2.19,2.18c3.29,3.19,9.26,8.87,10.35,9.9v7.89c-0.43,0.33-0.72,0.62-1.19,0.93l-0.23,0.16v11.08c-0.41,0.35-0.7,0.63-1.16,0.95l-0.24,0.14v28.73l0.21,0.14c0.11,0.22,0.33,1.4,0.49,2.43c0.07,0.57,0.16,1.11,0.26,1.56c0.09,0.37,0.11,0.64,0.28,0.91l-0.56,9.8l0.25,0.16c0.42,0.31,0.72,0.53,1.07,0.85c-0.2,0.86-0.23,2.23-0.25,3.89c0,3.88,0.35,8.92,0.35,8.93c-0.02,0.93,0.46,1.55,0.8,1.98c0.36,0.46,0.59,0.73,0.59,1.4v4.2c0,0.38,0.22,1.07,0.58,2.25c1.08,3.41,3.32,9.78,5.75,12.4l-2.58,25.78l2.85,6.59l1.64,4.08c0.11,0.36,0.49,0.58,0.75,0.59c0.38,0.05,0.56,0.04,0.56,0.06l0.05,0.05c0.03,0.08,0.07,0.27,0.07,0.58c0.07,0.27-0.79,1.13-2.1,1.76c-1.28,0.68-2.85,1.27-3.86,1.7l-0.5,0.2l0.2,0.5c0,0.01,0.41,1.09,0.82,2.61c0.42,1.53,0.85,3.49,0.85,5.08c0,0.25,0,0.49-0.04,0.72c-0.35,4.13-2.45,7.61-4.5,9.66l-0.52,0.52l0.64,0.33c0.39,0.2,0.82,0.2,1.45,0.22c1.45,0,3.69-0.24,5.67-0.63c0.96-0.2,1.89-0.43,2.59-0.71c0.62-0.28,1.17-0.49,1.42-1.04c0.01-0.01,0.03-0.03,0.07-0.03c0.28-0.01,1.04,0.36,1.77,0.79c0.78,0.42,1.5,0.92,2.34,0.94c0.12,0,0.26-0.02,0.4-0.07l0.05-0.03l0.07-0.03c1.85-1.01,5.87-2.02,9.37-2.96c1.76-0.5,3.4-0.98,4.62-1.47c0.61-0.26,1.15-0.5,1.53-0.8c0.32-0.23,0.62-0.53,0.72-0.96c0.62-0.71,0.7-0.62,1.11-0.9c0.42-0.3,0.75-0.75,1.45-2.23c1.69-2.08,1.75-2.83,2.96-6.22l0.01-0.05l1.46-7.84c1.1-2.72,1.18-5.49,1.18-8.15v-2.09c0-2.58,0.12-5.01,1.07-7.24l0.04-0.04l0.01-0.03c0.39-1.58,0.53-4.53,0.53-8.01c0-7.83-0.71-18.18-0.81-19.75c0.12-0.21,0.17-0.44,0.17-0.61c0.07-0.75-0.17-1.77,0.85-4.55l0.02-0.07l0.92-6.86c0.54-0.51,2.06-2.04,3.28-4.84c0.73-1.37,0.93-3.01,0.93-4.69c0-1.93-0.26-3.95-0.26-5.63c0-0.34,0-0.7,0.04-1.01c0.46-0.54,0.75-1.29,1.08-2.03c0.31-0.81,0.74-1.6,0.85-1.62l0.14-0.11l0.07-0.17c0.46-1.26,0.55-3.91,0.55-6.97C999.5,147.77,998.98,140.1,998.98,140.07 M920.34,138.15c-0.47,1.16-1.14,3.26-1.87,5.32c-0.75,2.14-1.59,4.28-2.23,5.06c-0.59,0.76-3.03,2.44-5.28,2.84c-0.45,0.09-1,0.12-1.59,0.12c-0.64,0-1.24-0.04-1.66-0.08v-41.6h0.33c0.25,0,0.55,0,0.87,0.03c0.57-0.03,1.73,0.64,2.95,1.75c1.88,1.68,4.04,4.24,5.72,6.37c1.56,1.97,2.7,3.59,2.85,3.81c1.23,2.21,1.5,4.22,1.5,5.54c0,1.04-0.17,1.63-0.16,1.63l-0.03,0.07v2.88c-0.3,0.35-0.34,0.74-0.53,1.11c-0.05,0.18-0.11,0.34-0.15,0.46l-0.34-0.17l-0.13,0.69c0,0.02-0.32,1.6-0.33,3.09C920.28,137.45,920.3,137.81,920.34,138.15 M946.63,223.69l-0.04-0.18c-0.03-1.43-1.35-4.34-1.91-5.25l-0.11-0.19l-0.2-0.06c-0.85-0.19-1.31-0.37-1.46-0.53c0.03-0.33,0.14-1.45,0.29-2.58c0.16-1.16,0.46-2.47,0.58-2.61l0.14-0.2l-0.04-0.2c-0.1-0.5-0.62-4.36-1.17-8.19c-0.27-1.9-0.57-3.82-0.83-5.31c-0.29-1.54-0.44-2.53-0.67-3.02l-0.29-0.5l-0.47,0.32c-0.32,0.19-0.51,0.24-0.59,0.23c-0.15,0-0.27-0.07-0.46-0.4c-0.26-0.48-0.46-1.37-0.61-2.14c-0.05-0.39-0.12-0.75-0.19-1.06c-0.1-0.24-0.06-0.49-0.33-0.71v-0.01c-0.15-0.23-0.29-1.29-0.37-2.62c-0.15-2.01-0.22-4.7-0.33-7.02c-0.05-1.18-0.12-2.25-0.21-3.09c-0.09-0.87-0.16-1.47-0.42-1.91l-0.04-0.06l-0.05-0.07c-0.13-0.05-0.42-1.02-0.52-2.02c-0.15-0.99-0.22-1.96-0.48-2.57c-0.41-0.85-0.45-1.31-0.45-1.63c0-0.15,0.01-0.29,0.01-0.48c0.06-0.35-0.25-0.84-0.67-1.02c-0.39-0.23-1.01-0.46-2.09-0.88c-0.07-0.02-0.17-0.05-0.23-0.4c-0.13-0.5-0.13-1.38-0.26-2.25c-0.16-0.79-0.58-1.72-1.56-2.14c-3.06-3.64-4.87-4.57-6.54-4.58c-1.16,0.01-2.05,0.42-3.11,0.42c-0.13,0-0.25-0.01-0.4-0.02c0.21-0.19,0.36-0.32,0.51-0.46c0.33-0.33,0.41-0.82,0.4-1.44c0-0.52-0.02-1.29-0.03-2.55c8.99-0.33,13.87-8.67,16.51-19.03l0.03-0.06v-0.07c0,0,0.02-1.59,0.02-3.41c0-0.83,0-1.72-0.02-2.52c0.3-0.47,0.44-1.1,0.66-1.76c0.1-0.37,0.22-0.72,0.33-0.98c0.07-0.14,0.09-0.26,0.16-0.32c0.02-0.04,0.04-0.06,0.05-0.07l0.21-0.14l0.02-0.28c0-0.02,0.2-3.21,0.2-5.79c0-1.37-0.03-2.52-0.28-3.19l-7.2-15.17h-0.33l-0.06-0.03c-0.51-0.2-1.96-1.57-3.64-2.96c-1.71-1.38-3.8-2.8-6.08-3.1c-0.61-0.09-1.19-0.1-1.69-0.1s-0.94,0.01-1.29,0.01c-0.45-0.14-3-0.9-5.55-1.73c-1.41-0.43-2.85-0.91-3.92-1.26c-0.55-0.2-0.98-0.33-1.31-0.45c-0.13-0.06-0.26-0.11-0.33-0.14l-0.08-0.15h-7.44c-0.37-0.5-0.57-0.8-0.85-1.11c-0.39-0.36-0.86-0.41-1.51-0.41c-1.35-0.02-1.72,0.09-3.58,0.94l-20.39,0.58l-0.07,1.07l5.14,1.11c0.11,0.11,0.28,0.22,0.51,0.41c1.12,0.8,3.61,2.51,5.85,4.55c2.23,2.01,4.14,4.43,4.24,6.36l0.03,0.32l0.24,0.12c0.54,0.31,0.96,0.46,1.39,0.46c0.61-0.02,1.02-0.27,1.5-0.4c0.57-0.17,0.85-0.58,1.05-0.84c0.07-0.13,0.17-0.23,0.22-0.27c0.35,0.07,1.44,0.32,2.48,0.6c0.61,0.17,1.22,0.35,1.71,0.51c0.15,0.05,0.27,0.1,0.4,0.16c-4.34,5.98-10.77,9.21-13.08,11.49l-0.14,0.12l-0.01,0.19c-0.22,1.71-0.33,4.14-0.33,6.56s0.11,4.82,0.33,6.53l0.03,0.23l0.19,0.12c0.59,0.43,0.88,0.72,1.02,0.89c0.14,0.2,0.13,0.19,0.13,0.23c0.01,0.07-0.03,0.21-0.03,0.44c0,0.61,0.31,1.27,1.44,2.43l0.08,7.24l0.19,0.12c0.1,0.27,0.23,1.63,0.28,2.81c0.05,0.64,0.07,1.28,0.14,1.79c0.07,0.49,0.06,0.8,0.29,1.16c0.66,1.32,0.8,3.34,0.79,4.24v0.49l-0.03,0.3l0.22,0.16c0.1,0.18,0.28,1.11,0.37,1.95c0.08,0.47,0.15,0.92,0.24,1.3c0.06,0.31,0.09,0.56,0.24,0.8c-0.01,0.52-0.01,1.18-0.01,1.83c0,1.48,0.03,2.96,0.03,2.96v0.29l0.25,0.15c0.02,0,0.32,0.51,0.52,1.09c0.21,0.51,0.33,1.03,0.65,1.46l0.69,5.98l0.21,0.13h-0.02c0.07,0.19,0.14,0.8,0.19,1.39c0.08,0.52,0.04,1.01,0.32,1.49c0,1.77,0.03,17.44,0.03,28.39c0,5.79,0,10.3-0.03,10.59v0.3l0.27,0.16c0.45,0.34,0.77,0.6,1.2,0.98c0.14,1,0.31,2.57,0.31,3.89c0,0.87-0.09,1.66-0.26,2c-0.62,0.64-1.24,2.02-2,3.9c-2.28,5.76-5.13,15.65-5.13,15.66l-0.03,0.07v0.08c0.03,0.56,0.37,0.96,0.78,1.35c2.85,2.58,13.49,7.02,18.93,21.81l0.61,1.72l0.42-1.77c1.08-4.5,1.35-7.34,1.35-9.22c0-1.37-0.15-2.23-0.24-2.83c0.24-0.15,0.39-0.2,0.56-0.33c0.25-0.13,0.46-0.37,0.71-0.74l0.09-0.1l0.01-0.13c0.05-0.35,0.09-0.78,0.09-1.28c0-3.67-1.32-11.42-1.49-14.52c0.99-2.39,1.25-5.47,1.25-8.48c0-2.09-0.12-4.13-0.26-5.85c-0.06-0.71-0.45-1.23-0.72-1.63c-0.33-0.42-0.52-0.75-0.5-0.85c0-0.05-0.02-0.08,0-0.13c-0.02-0.4,0.15-0.81,0.35-1.11c0.09-0.18,0.22-0.31,0.3-0.39c0.03-0.07,0.07-0.09,0.09-0.12l0.23-0.16v-0.4c0-2.77-3.6-32.28-3.59-35.99v-0.2v-0.02l0.04-0.08l-0.02-0.15v-0.12c-0.03-0.86,0.77-2.01,1.34-3.14c1.29-2.7,1.66-3.99,1.66-5.34c0-0.59-0.07-1.17-0.14-1.89c0.42,0.2,0.92,0.58,1.45,1.14c2.49,2.59,5.41,8.43,7.21,11.67v0.01c0,0.06,0.03,0.24,0.03,0.47c0,1.79-0.92,6.37-1.34,9.73l-0.06,0.48l0.47,0.09c0.64,0.1,1.72,1.55,2.58,3.74c2.72,6.56,4.68,19.4,4.66,20.51v0.04l-0.02,0.07l0.02,0.06c0.09,0.49,0.17,2.28,0.15,4.47c0.02,4.85-0.25,12.02-0.6,13.71c-0.36,1.99-1.58,5.45-2.72,8.66c-1.14,3.23-2.21,6.12-2.23,7.48c0,0.17,0.02,0.33,0.09,0.5l0.15,0.35l0.37-0.02h0.22h1.96c3.18,0.01,5.14,0.43,12.65,7.69c0.69,0.67,2.19,1.25,3.66,1.81c1.43,0.56,2.72,0.95,2.74,0.95l0.56,0.19l0.14-0.61c3.35-16.35,2.87-16.86,3.61-18.63c0.44-1.03,0.61-1.89,0.61-2.6c0-0.91-0.28-1.57-0.55-2.03c-0.12-0.23-0.23-0.43-0.33-0.55c-0.03-0.04-0.05-0.08-0.07-0.11c0.67-3.3,0.87-5.61,0.87-7.3c0-2.76-0.55-3.97-0.53-4.72c0.03-0.4,0.09-0.76,0.57-1.45L946.63,223.69L946.63,223.69z M654.67,117.31L654.67,117.31c-0.34,0.28-0.27,0.54-0.3,0.68c0.03,1.08,1.02,3.86,1.37,4.85c-0.69,0.71-0.87,1.89-1.1,3.3c-0.21,1.64-0.28,3.58-0.28,5.27c0,1.31,0.05,2.45,0.07,3.15c-4,0.45-5.75,2.47-6.76,4.44c-1.02,1.99-1.5,3.74-2.88,4.24c-0.06-0.07-0.19-0.12-0.34-0.2c-0.28-0.14-0.67-0.27-1.13-0.27h-0.08c-0.41,0.01-0.88,0.07-1.42,0.26v-26.94c0.46-0.27,0.77-0.48,1.01-0.76c0.43-0.54,0.35-1.07,0.38-1.54c0.02-0.35,0.05-0.8,0.31-1.5c0.14-0.07,0.31-0.15,0.48-0.22c0.01-0.02,0.03-0.02,0.04-0.02c-0.01,0.15-0.04,0.31-0.11,0.47l-0.39,0.88l6.2-0.88h0.67c1.01,2.1,2.16,2.8,3.36,2.94c0.96,0.14,1.84,0.05,2.94,0.44L654.67,117.31L654.67,117.31z M655.69,214.61L655.69,214.61c0.02,0.67-0.52,3.09-1.12,5.28c-0.29,1.11-0.62,2.18-0.88,2.95c-0.15,0.42-0.26,0.75-0.35,0.98c-0.06,0.12-0.09,0.22-0.13,0.25l-0.03,0.02l-0.11,0.08l-0.05,0.22c-0.46,2.35-0.43,4.92-0.54,7.16c-0.13,2.2-0.47,4.03-1.42,4.88c-1.09,0.79-2.22,2.39-3.52,3.84c-1.3,1.49-2.7,2.69-3.83,2.73l-0.2,0.02l-3.21,2.92c-1.14,0.42-2.76,0.72-3.82,0.85c0.28-0.5,0.62-1.15,0.98-1.84c0.39-0.71,0.75-1.41,1.06-1.99c0.14-0.28,0.28-0.53,0.37-0.72c0.08-0.23,0.13-0.25,0.15-0.58c0-0.06,0.02-0.13-0.06-0.29c-0.05-0.07-0.09-0.14-0.19-0.18c-0.11-1.52-0.19-4.92-0.19-4.92c0-6.72-0.07-9.85-0.07-11.21c0.05-0.07,0.08-0.12,0.09-0.16c0.14-0.28,0.2-0.62,0.33-1.41c0.07-0.65,0.53-0.82,1.27-1.63l0.12-0.14v-26.58l-0.33-0.14c-0.73-0.31-1.06-0.81-1.07-1.55c0-0.06,0-0.1,0.01-0.17c0.06-0.77,0.36-1.15,1.06-1.45l0.28-0.11l1.5-7.25l-0.05-0.13c-0.01,0-0.87-3.43-0.87-6.36c-0.02-1.48,0.25-2.8,0.76-3.44l0.11-0.12l0.04-0.16c0.1-1.25,0.12-3.31,0.12-5.51c0-3.06-0.07-6.36-0.09-8.2l3.47,3.59c0.03,0.04,3.08,2.96,5.78,4.45c0.12,0.14,0.65,0.6,1.12,1.2c0.61,0.7,1.16,1.61,1.12,2.12c0,0.21-0.02,0.34-0.19,0.48c-0.26,0.2-0.39,0.54-0.37,0.83c0,0.62,0.36,1.06,0.6,1.5c0.24,0.37,0.43,0.74,0.46,0.88c-0.04,0.01-0.17,0.05-0.33,0.06l-1.15,0.07l0.79,0.85c0,0,0.3,0.35,0.66,0.96c0.34,0.61,0.68,1.42,0.68,2.28c0,0.49-0.12,1.01-0.36,1.5l-0.23,0.46l0.46,0.25c0.27,0.13,0.39,0.4,0.39,0.99c0.03,1.63-1.32,4.43-1.37,5.97c0,1.51,0.16,2.43,0.4,3.1c0.41,1,0.99,1.25,1.24,1.71c0.33,0.46,0.66,1.37,0.66,3.82c-1.22,0.96-1.7,2.23-1.67,3.47c0.05,2.75,1.94,5.67,1.89,7.31c-0.02,0.54-0.12,0.85-0.52,1.14l-0.66,0.46l0.67,0.44c0.56,0.37,0.61,0.62,0.62,0.98c0.06,0.6-0.46,1.44-0.47,2.4C655.54,214.11,655.59,214.37,655.69,214.61 M674.65,223.48c-0.02-3.26-0.98-6.67-0.98-8.37c0-0.49,0.08-0.79,0.16-0.85c1.89-2.43,2.42-5.27,2.42-8.29c-0.03-3.88-0.83-8.13-0.83-12.57v-0.54v-2.69v-3.32c0.29-0.33,0.45-0.68,0.45-1.06c-0.06-0.97-0.8-1.46-1.46-1.99c-0.65-0.51-1.3-1.06-1.52-1.57c-0.82-1.87-1.11-4.34-1.11-6.77c0-4.88,1.14-9.62,1.14-9.63l0.08-0.34l-0.28-0.2c-0.83-0.59-1.18-0.9-1.3-1.04c-0.02-0.01-0.02-0.04-0.02-0.04v-0.01c0.02-0.18-0.08-0.59-0.42-1.04c-0.33-0.5-0.93-1.18-2.07-2.3l-0.49-0.49l-0.35,0.58c-0.17,0.27-0.21,0.23-0.21,0.24c0,0-0.08-0.01-0.18-0.11c-0.34-0.25-0.73-1.16-0.72-1.73c-0.02-0.3,0.09-0.41,0.12-0.43l0.07-0.07l0.05-0.07c0.03-0.06,1.47-2.12,1.5-3.97c0.04-0.95-0.56-1.99-1.84-2.19l-0.03-0.01h-0.02c-1.97-0.2-3.62-0.8-4.75-1.49c-0.58-0.33-1.01-0.66-1.27-0.96c-0.14-0.13-0.24-0.27-0.29-0.36c-0.05-0.05-0.05-0.07-0.05-0.08c1.58-1.86,6.22-7.48,8.19-11.14l5.18-9.73c1.11-1.12,1.42-2.67,1.42-4.42c0-3.01-0.93-6.78-0.93-10.82c-0.02-4.05-2.55-11.7-7.25-14.91c-1.31-0.88-2.73-1.05-3.68-1.05c-0.33,0-0.62,0.02-0.8,0.04c-0.48-0.43-1.2-0.78-1.89-1.36c-0.8-0.65-1.57-1.47-1.87-2.63l-0.07-0.37l-0.37-0.05c-2.7-0.44-4.67-0.59-6.43-0.59c-3.97,0-6.7,0.73-14.22,0.73l-7.42-0.23c-0.92,0-3.65,0.19-6.28,0.52c-1.36,0.17-2.61,0.35-3.64,0.58c-0.89,0.22-1.54,0.34-2.03,0.71h-7.48l-0.15,0.25c-0.72,1.16-0.91,1.16-1.21,1.52c-0.33,0.49-0.27,0.85-0.28,2.2c0,0.77-0.02,1.19-0.02,1.46c0.02,0.2-0.03,0.37,0.1,0.62c0.33,0.36,0.34,0.25,0.48,0.39c0.18,0.16,0.46,0.49,0.92,1.23l0.02,0.06l4.6,4.37c0.16,0.2,0.45,0.53,0.74,0.85c-0.07,0.05-0.14,0.16-0.19,0.42c0,0.26,0.17,0.41,0.26,0.47c0.25,0.12,0.25,0.07,0.35,0.1h0.24h0.06c0.05,0.04,0.07,0.07,0.1,0.08c0.18,0.08,0.09,0.14,0.51,0.21c0.11,0,0.31-0.07,0.44-0.21c0.04-0.05,0.05-0.08,0.07-0.12c0.46-0.03,0.89-0.06,1.17-0.08c0.39,0.46,0.63,0.72,0.8,0.84c0,0.01,0,0.01,0.01,0.03c-0.01,0.19-0.05,0.68-0.05,1.61c0,1.03,0.11,1.61,0.11,1.86c-0.04,0.17,0.01,0.07-0.12,0.25c-0.17,0.16-0.55,0.44-1.16,0.9l-0.24,0.15v35.81l1.53,2.55c0.06,0.43,0.18,1.9,0.18,3.24c0.02,0.98-0.08,1.91-0.22,2.13c-0.15,0.24-1.16,1.66-1.35,3.06v0.02l-0.14,10.27l1.09,2.26l0.33,7.06c-0.01,0.03-0.03,0.06-0.05,0.08c-0.2,0.37-0.67,1.08-1.66,1.14l-0.52,0.08l0.04,0.5c0.03,0.72,0.06,1.62,0.06,2.64c0,5.4-0.5,14.52-0.5,23.43v0.02v0.04c0.67,5.45,1.08,13.06,1.24,14.06c0.36,2.77,0.5,4.95,0.5,7.11c0,4.31-0.5,8.53-0.51,16.73c-0.47,2.48-1.17,5.63-1.82,8.21c-0.34,1.29-0.66,2.43-0.94,3.28c-0.13,0.42-0.26,0.74-0.34,0.98c-0.06,0.12-0.08,0.21-0.1,0.26c-0.02,0-0.02,0.01-0.02,0.01l-0.06,0.03c-0.41,0.43-1.49,1.02-2.43,1.46c-0.96,0.43-1.76,0.75-1.76,0.75l-0.99,0.36l0.89,0.58c0.24,0.18,1.05,0.92,1.67,1.48l0.52,0.44l0.3-0.49c0.07-0.02,0.28-0.05,0.54-0.04c1.1-0.01,3.06,0.31,4.58,0.32c0.64-0.01,1.2-0.04,1.68-0.27c0.95,0.15,5.09,0.81,8.55,0.81c1.23,0,2.36-0.08,3.28-0.31c0.83-0.22,1.59-0.57,1.89-1.29c0.98-0.94,1.63-1.17,2.05-1.17c0.5-0.01,0.9,0.34,1.36,0.85c0.45,0.45,0.81,1.11,1.72,1.2c0.51-0.03,0.95-0.35,1.34-0.84c0.14-0.12,0.9-0.39,1.8-0.59c2.8-0.71,7.51-1.38,7.53-1.38l0.35-0.03l0.1-0.32c0.68-1.96,3.61-3.82,6.48-5.94c3.24-2.37,9.07-5.07,9.09-5.09l0.28-0.12l0.03-0.3c-0.02-0.02,0.58-6.17,1.94-9.66c1.16-2.92,4.07-7.08,4.07-7.1l0.04-0.05l0.01-0.04c0.02-0.03,1.84-4.1,2.38-6.99C674.58,224.96,674.65,224.21,674.65,223.48 M792.78,198.41v-1.37l0.05-0.57h-3.97l-0.16,0.19c-1.22,1.37-1.24,2.8-1.64,3.96c-0.37,1.11-0.97,2.1-3.18,3.14c-0.26-0.37-0.48-0.67-0.74-1.11l-0.34-0.59l-0.47,0.46c-1.51,1.45-2.4,4.5-2.62,5.95c-3.48,0.28-6.06,3.14-8.04,5.95c-1.06,1.48-1.93,2.98-2.67,4.16c-0.73,1.18-1.43,2.01-1.67,2.11c-2.03,0.93-3.46,1.22-4.47,1.31c-1.04,0.13-1.59-0.05-2.24,0.2c-2.69,1.34-4.16,2.19-5.14,2.72c-0.98,0.5-1.33,0.66-2.01,0.66c-0.7,0-1.13,0.09-1.29,0.08c0-0.01-0.02-0.01-0.04,0c-0.01,0,0,0.01-0.14-0.11c-0.14-0.14-0.34-0.46-0.69-0.94c0.55-0.84,1.17-2.25,1.89-4.05c1.24-3.08,2.71-7.17,3.92-10.5c0.59-1.67,1.14-3.14,1.56-4.19c0.22-0.53,0.41-0.94,0.52-1.23c0.07-0.11,0.12-0.21,0.15-0.25l-0.03-0.03l0.03,0.04l-0.26-0.29l0.56-0.06v-3.82c-0.05-0.17,0.41-1.86,1.15-3.99c1.11-3.26,2.93-7.87,4.93-11.86c1.97-3.98,4.24-7.36,5.91-7.99l0.39-0.18l-0.09-0.45c0,0-0.39-1.79-0.39-3.63c0-0.94,0.11-1.85,0.39-2.53c0.53-1.44,2.19-2.84,3.75-3.83c1.57-0.99,2.97-1.58,2.97-1.58l0.33-0.14v-6.61c1.28-1.47,2.28-4.85,3.61-8.38c1.36-3.66,3.06-7.39,5.06-8.83l0.31-0.21l-0.09-0.38c0,0-0.51-1.73-0.51-3.75c0-1.78,0.41-3.7,1.76-4.79l0.19-0.18v-25.74c0-0.98-0.48-1.6-0.83-2.02c-0.35-0.46-0.58-0.74-0.59-1.4v-7.75h-0.53c-19.55,0-21.33-0.16-41.22-0.16h-0.64l0.08,0.61c0.03,0.1,0.05,0.17,0.05,0.27c0,0.63-0.32,1.43-0.66,2.06c-0.35,0.63-0.67,1.05-0.67,1.05l-0.12,0.17v13.4l0.24,0.16c0.55,0.38,0.85,0.59,1.32,1.06c0.85,0.86,1.22,2.29,1.2,3.87c0.02,3.11-1.31,6.58-1.31,6.6l-0.17,0.4l0.35,0.23c0.07,0.03,0.19,0.22,0.23,0.64c0.08,0.4,0.09,0.92,0.19,1.45c0.35,1.84,0.78,4.77,0.78,4.77l0.02,0.23l0.2,0.14c1.12,0.81,1.19,1.2,1.19,1.58c0.03,0.29-0.1,0.67-0.1,1.21c-0.02,0.72,0.31,1.56,1.33,2.49l0.48,0.45l0.35-0.56c1.99-3.32,2.83-4.49,2.89-5.61V119.1c-0.03-0.78,0.85-1.76,2.04-2.48c1.15-0.72,2.56-1.17,3.04-1.16h0.54v-0.54c0.03-8.07,6.17-8.29,8.47-10.48l15.5,0.15v9.5c-4.79,4.48-6.59,9.44-9.63,11.59l-0.12,0.09l-0.05,0.11c-0.64,1.35-0.83,2.85-0.83,4.24c0,2.2,0.48,4.18,0.7,4.96c-4.66,4.33-5.5,6.61-5.63,7.41c-0.3,0.24-0.92,0.68-1.54,1.15c-0.46,0.33-0.89,0.66-1.24,0.9c-0.17,0.13-0.3,0.24-0.4,0.33c-0.07,0.05-0.12,0.08-0.16,0.1c-0.04,0.07-0.02,0.02-0.16,0.17c-2.46,3.8-4.98,16.4-5.29,17.92c-3.05,3.31-4.41,5.98-5.09,8.01c-0.64,1.91-0.69,3.31-0.88,3.73c-0.4,0.49-3.47,4.08-4.94,6.9c-0.89,1.77-1.14,3.8-1.42,5.5c-0.24,1.7-0.57,3.04-1.21,3.45l-0.24,0.16v0.31c0.02,0.09,0.02,0.18,0.02,0.28c0.02,2.67-1.56,7.88-1.56,12.36c0,0.77,0.04,1.53,0.17,2.26l0.01,0.15l0.09,0.1c0,0,0.03,0.05,0.12,0.19c0.23,0.35,0.74,1.25,0.74,2.38c0,0.75-0.21,1.56-0.88,2.48l-0.33,0.45l0.46,0.32c0.22,0.13,1.02,1.38,1.56,2.54c0.3,0.59,0.55,1.17,0.75,1.63c0.07,0.22,0.17,0.43,0.2,0.57c0.03,0.08,0.05,0.13,0.05,0.16h0.02c0,0.54,0.03,0.9,0.03,1.09c-0.02,0.22,0.03,0.13-0.09,0.29c-0.14,0.15-0.47,0.41-1.1,0.85l-0.26,0.15v9.18c-0.31,0.31-0.74,0.72-1.15,1.13c-0.21,0.24-0.42,0.46-0.59,0.66c-0.07,0.09-0.15,0.19-0.2,0.27c-0.06,0.11-0.15,0.16-0.16,0.46c-0.04,0.59,0.2,1.05,0.48,1.33c0.3,0.29,0.57,0.52,1.01,1.24l0.15,0.26h10.95c1.58,1.68,4.68,2.23,4.73,2.28l0.06,0.01h0.09c1.45,0,2.03-1.08,2.53-1.76c0.54-0.71,0.98-1.25,2.7-1.3c0.97,0,1.5-0.12,1.72-0.12c0.01,0.02,0.03,0.01,0.05,0c0.01,0,0,0,0.13,0.11c0.13,0.19,0.4,0.59,0.83,1.26l0.14,0.27h16.08l0.15-0.27c0.39-0.61,1.51-1.37,2.65-1.9c1.1-0.53,2.31-0.87,2.54-0.85h0.56l-0.02-0.58c0-0.03-0.47-8.53-0.47-14.79c0-1.59,0.03-3.01,0.09-4.11c0.06-0.98,0.19-1.77,0.28-2.03c0.92-0.94,1.12-1.98,1.38-2.71c0.31-0.77,0.5-1.18,1.63-1.51l0.59-0.19l-0.23-0.57C792.91,203.67,792.77,200.28,792.78,198.41 M868.65,187.92h-0.33c-0.24,0-0.51,0-0.83-0.02c-2.79-0.86-5.04-3.67-9.12-4.58c-1.4-0.29-2.82-0.39-4.11-0.39c-0.93,0-1.78,0.05-2.55,0.13l0.03-0.2c0.18-0.63,0.2-1.45,0.22-2.46c0-2.55-0.33-6.13-0.33-8.74c0-0.8,0.02-1.5,0.1-2.02c0.38-0.52,0.57-1.25,0.74-2.14c0.47-2.39,0.65-5.82,0.69-7.05c1.49-0.29,2.12-1.44,2.41-2.46c0.37-1.15,0.59-2.23,1.59-2.92l0.21-0.17v-0.27l0.25-6.35c0.59,1.63,1.46,3.56,2.52,4.73c0.97,1.02,2.07,1.31,3.07,1.54c1.01,0.23,1.89,0.45,2.77,1.24c0.95,0.8,1.37,3.13,1.55,5.37c0.11,1.12,0.2,2.23,0.36,3.17c0.16,0.79,0.31,1.48,0.76,1.98c0.13,1.07,0.19,3.76,0.19,6.86C868.86,178.86,868.68,185.98,868.65,187.92 M886.74,183.96l-0.09-0.07c-0.06-0.24-0.25-1.07-0.42-2.13c-0.62-3.66-1.47-10.61-1.47-12.97c0-0.18,0-0.33,0.02-0.44l0.42-0.08v-8.27l-0.23-0.17c-1.17-0.84-1.23-1.22-1.23-1.51c-0.03-0.26,0.15-0.65,0.15-1.27c0.02-0.75-0.35-1.62-1.52-2.71v-6.14l-0.21-0.14c-0.45-0.3-0.8-0.63-1.24-1.01l-4.42-17.45l-0.04-0.04c0,0-1.27-3.29-2.54-7.07c-1.31-3.73-2.57-8.04-2.55-9.75v-4.2c0.02-0.44-0.1-0.84-0.34-1.13c-0.56-0.87-1.77-1.68-4.62-7.83c-0.09-0.16-0.2-0.85-0.33-1.68c-0.16-1.28-0.39-2.94-0.98-4.36c-0.56-1.41-1.64-2.67-3.4-2.67c-1.29-0.01-2.18,0.59-2.61,1.47c-0.39,0.86-0.45,1.88-0.45,2.89c0,0.56,0.01,1.08,0.01,1.59c0,0.89-0.06,1.72-0.26,2.27c-0.25,0.54-0.52,0.83-1.21,0.91l-0.15,0.03l-0.09,0.07c-1.29,0.82-1.69,1.38-1.91,1.85c-0.2,0.41-0.16,0.54-1.05,1.21l-0.22,0.16v6.12c-1.87,1.74-1.87,2.63-2.75,4.18c-1.51,2.69-2.8,7.04-3.05,7.93c-0.38,0.3-0.88,0.51-1.37,1.11c-0.4,0.5-0.55,1.07-0.55,1.58c0.03,1.1,0.54,1.96,0.52,2.95c0,0.17-0.02,0.31-0.05,0.48c-1.69,1.65-2.61,4.21-3.86,6.89c-1.29,2.84-1.35,6.05-1.59,8.76c-0.23,2.71-0.63,4.81-2.16,5.69l-0.26,0.16v0.31c0,2.26-0.41,4.25-0.81,5.67c-0.39,1.41-0.8,2.23-0.79,2.23c-0.93,1.78-2,2.66-2.7,4.83c-0.2,0.71-0.28,1.31-0.28,1.88c0,1.26,0.36,2.15,0.36,3.51c0,0.57-0.07,1.24-0.26,2.08c-0.06,0.44-0.08,0.79-0.08,1.11c-0.05,1.14,0.6,1.76,1.07,1.92c0.22,0.09,0.33,0.17,0.34,0.2c0.03,0.04,0.08,0.05,0.1,0.31c-0.07,1.05-0.18,1.09-1.19,1.84l-0.24,0.17v6.1c-0.36,0.29-0.8,0.51-1.25,1.05c-0.71,0.83-0.89,1.87-0.89,2.88c0,1.63,0.5,3.29,0.71,3.89c-0.07,0.12-0.08,0.23-0.16,0.4c-0.5,1.9-1.22,7.95-1.22,7.97l-0.03,0.33l0.26,0.19c0.85,0.55,1.24,0.91,1.17,1.08c0,0.16-0.06,0.32-0.33,0.55c-0.78,0.72-2.93,1.27-3.98,2.99c-1.1,1.87-1.26,4.85-1.29,5.72c-1.8,1.63-2.43,2.23-4.99,5.71l-0.24,0.31l0.22,0.31c0.87,1.33,0.87,1.6,0.92,2.04c0.07,0.48,0.18,1.19,1.08,2.6l0.21,0.38l0.43-0.15c0.02,0,7.6-2.86,14.34-5.12c0.55-0.18,2.15-0.24,3.92-0.23c3.5,0,7.8,0.26,7.82,0.26l0.47,0.03l0.08-0.46c0.16-0.81,0.64-1.58,1.14-2.24c0.21-0.33,0.46-0.61,0.67-0.89c0.19-0.3,0.35-0.51,0.4-0.91c0.01-0.43-0.45-0.79-0.74-0.82c-0.59-0.1-1.33-0.77-2.08-1.5c-0.63-0.59-1.32-1.23-2.18-1.46v-7.6l-1.19-3.56h2.54c0.61,0.64,1.78,1.34,3.33,2.24c2.56,1.45,6.02,3.23,8.84,4.95c1.38,0.84,2.61,1.67,3.49,2.41c0.87,0.72,1.29,1.41,1.24,1.62v0.02c-0.2,6.25-2.47,11.68-4.66,15.56c-1.1,1.94-2.19,3.48-2.99,4.54c-0.84,1.06-1.33,1.62-1.33,1.62l-0.17,0.15v0.23c0,3.32,1.9,5.55,3.68,7.37c1.82,1.8,3.41,3.28,3.38,4.79v4.26l4.2,13.69v8.83l0.82-0.45c0.37-0.2,0.63-0.3,0.75-0.35c0.06,0.06,0.07,0.11,0.12,0.16c0.12,0.15,0.38,0.28,0.62,0.28c0.57,0.02,1.05-0.28,1.29-0.58c0.26-0.3,0.49-0.59,1.13-1.07l0.2-0.16v-6.5c0.4-0.36,0.73-0.6,1.2-0.93l0.21-0.18v-5.01c1.12-1.23,1.59-3.29,2.15-5.23c0.5-2.02,1.12-3.97,1.85-4.42l0.25-0.18v-8.05c1.76-1.89,2.94-5.43,3.98-8.71c0.55-1.71,1.01-3.32,1.49-4.62c0.47-1.28,1-2.21,1.32-2.41l0.18-0.14l0.05-0.18c0.46-1.89,0.62-9.45,0.62-17.17c0-7.49-0.16-14.97-0.43-17.25L886.74,183.96z M852.84,225.73c-0.06-1.98-1.48-2.86-2.21-4.1l-0.16-0.26h-7.07c-0.42-0.51-0.82-0.9-1.3-1.37l-0.48-0.44l-0.35,0.57c-1.89,3.06-3.39,4.06-5.14,4.87c-1.76,0.81-3.86,1.37-6.64,3.33c-0.47,0.35-1.99,0.75-3.52,1.22c-1.57,0.5-3.23,1.13-4.32,2.27c-1.09,1.2-1.24,2.61-1.37,3.61c-0.07,0.49-0.17,0.93-0.27,1.15c-0.15,0.23-0.2,0.33-0.5,0.4c-2.16,0.03-3.8,0.62-5.36,0.6c-0.77,0-1.55-0.12-2.42-0.54l-0.46-0.22l-0.24,0.43c-0.27,0.42-0.47,0.8-0.63,1.01c-0.21,0.23-0.27,0.24-0.31,0.24c-0.41,0.02-0.56-0.18-1.12-0.71c0.42-0.79,1.21-2.19,1.29-3.19c0.2-0.51,1.31-3.13,1.32-4.68c0-0.12,0-0.24-0.01-0.36c0.8-1.24,4.32-7.1,5.01-11.74c0.16-0.98,0.2-2.1,0.2-3.19c0-1.85-0.14-3.58-0.19-4.04l4.22-12.15v-15.64c0.5-1.98,1.21-2.87,2.02-3.7c0.74-0.83,1.68-1.56,2.18-3.04l0.04-0.08v-4.81c1.89-1.96,2.63-4.86,3.26-7.46c0.62-2.67,1.2-5.04,2.14-5.64l0.22-0.16l0.43-13.86l-0.02-0.06c-0.09-0.42-0.11-0.83-0.11-1.19c-0.03-2.58,1.72-4.54,2.43-7.91c0.72-3.41,1.49-8.76,1.49-8.77c0.11-1.48,0.5-1.78,1.03-2.18c0.53-0.37,1.4-0.76,1.77-1.92c0.19-0.71,0.27-1.51,0.27-2.26c0-1.11-0.14-2.17-0.22-2.65c2.74-2.62,3.47-3.07,4.17-5.75c0.18-0.72,0.23-1.5,0.23-2.27c0-1.11-0.12-2.16-0.18-2.66c4.07-4.11,4.57-9.07,5.83-10.49l0.11-0.14v-1.84l-0.49-0.06c-0.11-0.01-0.21-0.01-0.31-0.01c-0.41,0-0.67,0.07-0.8,0.05h-0.05c-0.01,0,0.02,0.02-0.1-0.08c-0.13-0.15-0.4-0.54-0.78-1.2l-0.17-0.26h-0.3c-25.83,0-37.79-0.06-43.23-0.06c-2.72,0-3.86,0.02-4.31,0.06l-0.49,0.02v26.14c-0.83,0.81-2.05,1.96-2.13,3.29c0.04,1.65,0.76,2.42,0.74,3.92c0,0.75-0.19,1.72-0.7,3.1l-0.16,0.42l0.35,0.23c0.27,0.18,1.07,0.92,1.71,1.49l0.47,0.43l0.34-0.56c0.78-1.21,1.22-1.23,1.82-1.25c0.24,0,0.49,0.03,0.76,0.03c0.79,0.05,1.8-0.33,2.47-1.68c0.69-1.36,1.35-3.67,2.05-7.94c0.67-4.04,1.59-7.14,2.5-9.18c0.91-2.11,1.99-3,2.25-2.92c0.97-0.05,2.94-0.9,4.8-0.9c0.87,0,1.66,0.21,2.18,0.74c0.47,0.46,0.62,0.78,0.98,1.42l0.15,0.27h7.47c0.3,0.35,0.55,0.57,0.63,0.68c0.12,0.13,0.08,0.03,0.13,0.33v0.05c0.08,0.41-0.9,1.23-1.18,1.38l-0.24,0.16v5c-2.02,1.98-4.37,6.18-6.31,10.11c-0.98,2.01-1.87,3.93-2.49,5.42c-0.31,0.75-0.57,1.39-0.73,1.88c-0.17,0.5-0.29,0.75-0.3,1.08c0,0.06,0.07,1.16,0.07,2.39c0,0.62-0.01,1.24-0.07,1.75c-0.23,1.95-1.18,4.06-2.15,5.83c-0.98,1.82-1.9,3.12-2.07,4.03c-0.03,0.31-0.03,0.52-0.03,0.75c0,0.43,0.03,0.87,0.03,1.61c0,1.09-0.5,2.14-0.97,2.93c-0.49,0.78-0.99,1.25-0.99,1.26l-0.17,0.16v0.23c0,0.51-0.08,0.78-0.1,1.29c0,0.23,0.03,0.51,0.13,0.81c0.24,0.59,0.73,0.93,1.01,1.14c0.25,0.23,0.35,0.32,0.37,0.48l-8.43,22.37v0.05c0,0.02-1.37,6.67-1.37,13.71c0,3.53,0.34,7.18,1.39,10.16c0.26,0.77,0.65,1.27,0.92,1.72c0.26,0.46,0.45,0.82,0.46,1.53v0.04v0.06c0,0,0.47,2.81,0.47,5.81c0,1.48-0.1,3.02-0.47,4.22c-0.2,0.63-0.54,1.38-0.83,2.02c-0.3,0.69-0.55,1.05-0.59,1.55v0.08l0.03,0.08c0,0,0.46,1.36,0.44,2.59c0.03,0.61-0.11,1.16-0.36,1.49c-0.35,0.47-0.65,0.6-1.29,1.02l-0.3,0.2l0.09,0.37c0,0,0.35,1.38,0.35,2.77c0,0.67-0.07,1.35-0.33,1.81c-0.59,1.2-1.35,1.55-2.63,2.44l-0.34,0.24l0.14,0.38c0,0.01,0.5,1.48,0.5,2.82c0,0.67-0.14,1.27-0.42,1.62c-0.37,0.47-0.7,0.62-1.29,1.03l-0.24,0.16v5.63c0.04,0.46-0.2,1.35-0.2,2.36c-0.02,1.11,0.28,2.44,1.39,3.65l0.18,0.18h0.23c2.93-0.02,6.67-2.28,8.14-2.61c3.15,0,6.13-0.25,11.45-0.25h0.07l0.08-0.03c1.8-0.64,3.99-2.03,5.35-3.54l6.96,0.74c0.37,0.44,0.62,0.78,0.9,1.29l0.15,0.27h21.18l0.07-0.46c0.04-0.23,0.07-0.46,0.07-0.61c0-0.21-0.03-0.35-0.03-0.44v-0.01c0.14-0.11,0.47-0.38,1.16-0.86l0.23-0.18v-13.21c-0.14-1.57-1.43-2.06-1.42-4.56c0-1.56,0.33-2.29,0.63-2.75C852.31,226.68,852.76,226.5,852.84,225.73"></path><path d="M571.17,357.65V2.61c0-1.17,0.94-2.13,2.12-2.13c1.16,0,2.12,0.96,2.12,2.13v355.04c0,1.18-0.96,2.12-2.12,2.12C572.1,359.77,571.17,358.83,571.17,357.65"></path></svg>