<svg version="1.1" id="svg2" xmlns:dc="http://purl.org/dc/elements/1.1/" xmlns:inkscape="http://www.inkscape.org/namespaces/inkscape" xmlns:rdf="http://www.w3.org/1999/02/22-rdf-syntax-ns#" xmlns:cc="http://creativecommons.org/ns#" xmlns:svg="http://www.w3.org/2000/svg" xmlns:sodipodi="http://sodipodi.sourceforge.net/DTD/sodipodi-0.dtd" inkscape:version="0.47 r22583" xmlns="http://www.w3.org/2000/svg" xmlns:xlink="http://www.w3.org/1999/xlink" x="0px" y="0px" width="500.201px" height="179.174px" viewBox="0 0 500.201 179.174" enable-background="new 0 0 500.201 179.174" xml:space="preserve"><g id="layer1" transform="translate(260.80705,139.2842)" inkscape:label="Layer 1" inkscape:groupmode="layer"><g><path id="path37769_8_" fill="#232323" d="M-133.974-48.45c0-35.896,13.283-58.527,29.142-60.921c-15.858-19.489-42.345-29.913-66.396-29.913c-26.486,0-50.274,11.499-66.661,29.751c15.636,3.103,20.949,16.226,20.949,36.524h-19.124c0-11.986-2.494-18.191-9.592-18.191c-3.186,0-5.659,1.623-7.119,4.381c-0.203,0.446-0.427,0.913-0.628,1.379c-0.549,1.543-0.853,3.326-0.853,5.293c0,24.823,40.763,23.586,40.763,61.752c0,14.887-11.417,28.777-24.274,28.777c16.893,18.455,39.972,29.508,66.539,29.508c25.836,0,49.098-10.932,65.442-28.433C-120.853,7.664-133.974-14.017-133.974-48.45 M-142.493,10.687h-20.503v-50.983h-22.146v50.983h-20.543v-117.664h20.503v47.394h22.186v-47.394h20.503V10.687z"></path><path id="path37773_8_" fill="#232323" d="M-243.099-8.041c5.719,0,9.774-5.029,9.774-12.351c0-15.189-13.264-18.109-27.479-30.946C-261.007-25.358-252.956-8.041-243.099-8.041"></path><path id="path37777_8_" fill="#232323" d="M-113.599-50.349c0-19.813,5.76-39.627,16.285-39.627c12.513,0,15.677,30.623,15.677,40.295c0,21.233-6.692,40.377-15.677,40.377C-108.104-9.302-113.599-29.479-113.599-50.349"></path><path id="path37781_8_" fill="#232323" d="M91.16-105.345H75.139H19.673h-2.576H4.727l-8.193,67.209H-3.79l-9.167-67.209h-18.801l-9.958,67.209h-0.323l-7.402-67.209h-18.962L-53.132,9.116h18.313l10.302-72.5h0.305l9.979,72.5H4.728L17.382-87.66h17.725V9.116h20.909V-87.66H75.14V9.116h20.909v-114.461H91.16z"></path><path id="path37785_8_" fill="#232323" d="M106.306-105.345h27.823l9.309,58.67h0.324l9.815-58.67h27.154V9.116h-18.638v-83.918h-0.324L147.615,9.116h-11.56l-13.993-83.918h-0.305V9.116h-15.452L106.306-105.345L106.306-105.345z"></path><path id="path37789_8_" fill="#232323" d="M191.006-105.345h47.272v17.685h-26.364v29.244h19.429v18.658h-19.429v31.188h27.479V9.116h-48.388V-105.345z"></path></g></g></svg>