<svg viewBox="0 0 222 73" version="1.1" xmlns="http://www.w3.org/2000/svg"><polygon points="8.544,0 0,69.312 19.872,71.712 28.416,2.4 "></polygon><path d="M127.199,23.136c-4.416-3.135-9.824-4.704-16.224-4.704c-1.857,0-3.744,0.129-5.664,0.384c-5.632,0.768-10.433,2.529-14.4,5.28c-4.566,3.086-7.614,7.142-9.164,12.155c-1.622-5.588-4.663-9.973-9.171-13.115c-4.416-3.135-9.825-4.704-16.224-4.704c-1.857,0-3.744,0.129-5.664,0.384c-5.632,0.768-10.433,2.529-14.4,5.28c-6.912,4.672-10.368,11.553-10.368,20.64c0,1.665,0.127,3.393,0.384,5.184c0.768,5.568,2.655,10.113,5.664,13.632c4.927,5.889,11.839,8.832,20.736,8.832c10.879,0,19.167-3.36,24.864-10.08c1.978-2.271,3.423-4.843,4.352-7.706c1.008,3.487,2.556,6.48,4.672,8.954c4.927,5.889,11.839,8.832,20.735,8.832c10.88,0,19.167-3.36,24.864-10.08c4.735-5.439,6.464-12.576,5.185-21.408C136.286,33.024,132.895,27.105,127.199,23.136z M56.352,58.56c-5.697,0.768-9.185-3.392-10.464-12.48c-0.449-3.392-0.225-6.303,0.672-8.736c1.152-3.007,3.264-4.735,6.336-5.184c2.943-0.384,5.343,0.768,7.2,3.456c1.471,2.112,2.431,4.8,2.88,8.064c0.255,1.665,0.384,3.168,0.384,4.512C63.36,54.4,61.023,57.856,56.352,58.56z M110.975,58.56c-5.697,0.768-9.185-3.392-10.464-12.48c-0.449-3.392-0.225-6.303,0.672-8.736c1.152-3.007,3.264-4.735,6.336-5.184c2.943-0.384,5.343,0.768,7.2,3.456c1.472,2.112,2.432,4.8,2.88,8.064c0.255,1.665,0.384,3.168,0.384,4.512C117.983,54.4,115.646,57.856,110.975,58.56z"></path><path d="M158.59,54.817c-0.192-0.96-0.192-2.239,0-3.838l2.304-18.334l9.504,1.25l1.44-11.524l-9.504-1.152l1.92-15.745l-19.584-2.4l-1.92,15.743l-7.296-0.958l-1.442,11.527l7.013,0.827l-2.499,21.135c-0.384,2.819-0.576,5.252-0.576,7.301c0,1.731,0.128,3.171,0.385,4.323c0.575,3.012,2.654,5.253,6.239,6.726c2.048,0.833,5.247,1.504,9.601,2.018c3.647,0.447,7.423,0.768,11.328,0.96l1.728-14.207l-3.168-0.384C160.734,57.634,158.91,56.545,158.59,54.817z"></path><path d="M197.181,29.568c0.639,0,1.375,0.064,2.208,0.192c3.519,0.641,5.184,2.625,4.992,5.952l17.855,3.072c0.896-10.623-6.369-17.28-21.792-19.968c-2.368-0.447-4.737-0.672-7.104-0.672c-11.328,0-17.761,4.32-19.296,12.96c-0.192,1.089-0.288,2.112-0.288,3.072c0,5.889,3.967,10.529,11.903,13.92c2.943,1.216,5.888,2.464,8.832,3.744c4.416,2.112,6.495,4,6.24,5.664c-0.448,2.369-2.049,3.552-4.8,3.552c-0.641,0-1.377-0.063-2.208-0.192c-2.049-0.319-3.585-1.119-4.608-2.4c-1.216-1.344-1.632-3.007-1.248-4.992l-18.72-3.264c-0.064,0.833-0.096,1.632-0.096,2.4c0,10.113,7.327,16.449,21.983,19.008c4.416,0.768,8.384,1.056,11.904,0.864c6.975-0.513,11.967-2.784,14.977-6.816c2.047-2.751,3.071-5.983,3.071-9.696c0-5.887-4.192-10.688-12.576-14.4c-2.944-1.215-5.889-2.463-8.832-3.744c-4.545-2.239-6.688-4.063-6.432-5.472C193.468,30.497,194.813,29.568,197.181,29.568z"></path></svg>